<svg class="Nav_menuItemIcon__fw__X" width="24" height="24" viewBox="0 0 24 24" fill="none" stroke="currentColor" stroke-linecap="round" stroke-linejoin="round" stroke-width="1.5" aria-hidden="true"><path d="m11.04 15.742 1.55 1.55a1.644 1.644 0 0 0 2.325-2.325m-1.55-1.55 1.938 1.937a1.644 1.644 0 1 0 2.325-2.325L14.62 10.02a2.326 2.326 0 0 0-3.286 0l-.682.682a1.644 1.644 0 0 1-2.326-2.325l2.178-2.179a4.488 4.488 0 0 1 5.473-.674l.364.217c.33.2.723.268 1.101.194l1.349-.272m0-.775.775 8.527h-1.55M4.838 4.89l-.776 8.527 5.04 5.039a1.644 1.644 0 1 0 2.325-2.325M4.837 5.664h6.202"></path></svg>